<?xml version="1.0" standalone="no"?>
<!DOCTYPE svg PUBLIC "-//W3C//DTD SVG 20010904//EN"
 "http://www.w3.org/TR/2001/REC-SVG-20010904/DTD/svg10.dtd">
<svg version="1.0" xmlns="http://www.w3.org/2000/svg"
 width="238.000000pt" height="238.000000pt" viewBox="0 0 238.000000 238.000000"
 preserveAspectRatio="xMidYMid meet">
<metadata>
Created by potrace 1.11, written by Peter Selinger 2001-2013
</metadata>
<g transform="translate(0.000000,238.000000) scale(0.100000,-0.100000)"
fill="#000000" stroke="none">
<path d="M221 2364 c-85 -30 -152 -90 -193 -172 l-23 -47 0 -950 0 -950 28
-57 c35 -71 107 -137 178 -163 52 -18 87 -19 964 -20 939 -1 957 0 1034 40 40
20 105 87 129 130 36 69 38 110 37 1035 -1 966 0 940 -50 1020 -30 48 -89 98
-144 124 -46 21 -54 21 -981 23 -824 2 -940 0 -979 -13z"/>
</g>
</svg>
