<svg width="283" height="305" viewBox="0 0 283 305" fill="none" xmlns="http://www.w3.org/2000/svg">
<path d="M30.8956 248.137C35.8556 248.137 40.149 248.964 43.7756 250.617C47.4556 252.27 50.2823 254.617 52.2556 257.657C54.229 260.697 55.2156 264.297 55.2156 268.457C55.2156 272.564 54.229 276.164 52.2556 279.257C50.2823 282.297 47.4556 284.644 43.7756 286.297C40.149 287.897 35.8556 288.697 30.8956 288.697H19.6156V304.137H6.65563V248.137H30.8956ZM30.1756 278.137C34.069 278.137 37.029 277.31 39.0556 275.657C41.0823 273.95 42.0956 271.55 42.0956 268.457C42.0956 265.31 41.0823 262.91 39.0556 261.257C37.029 259.55 34.069 258.697 30.1756 258.697H19.6156V278.137H30.1756ZM83.99 304.777C79.4567 304.777 75.3767 303.844 71.75 301.977C68.1767 300.057 65.3767 297.417 63.35 294.057C61.3233 290.697 60.31 286.884 60.31 282.617C60.31 278.35 61.3233 274.537 63.35 271.177C65.3767 267.817 68.1767 265.204 71.75 263.337C75.3767 261.417 79.4567 260.457 83.99 260.457C88.5233 260.457 92.5767 261.417 96.15 263.337C99.7233 265.204 102.523 267.817 104.55 271.177C106.577 274.537 107.59 278.35 107.59 282.617C107.59 286.884 106.577 290.697 104.55 294.057C102.523 297.417 99.7233 300.057 96.15 301.977C92.5767 303.844 88.5233 304.777 83.99 304.777ZM83.99 294.537C87.19 294.537 89.8033 293.47 91.83 291.337C93.91 289.15 94.95 286.244 94.95 282.617C94.95 278.99 93.91 276.11 91.83 273.977C89.8033 271.79 87.19 270.697 83.99 270.697C80.79 270.697 78.15 271.79 76.07 273.977C73.99 276.11 72.95 278.99 72.95 282.617C72.95 286.244 73.99 289.15 76.07 291.337C78.15 293.47 80.79 294.537 83.99 294.537ZM130.412 304.777C126.839 304.777 123.345 304.35 119.932 303.497C116.519 302.59 113.799 301.47 111.772 300.137L115.932 291.177C117.852 292.404 120.172 293.417 122.892 294.217C125.612 294.964 128.279 295.337 130.892 295.337C136.172 295.337 138.812 294.03 138.812 291.417C138.812 290.19 138.092 289.31 136.652 288.777C135.212 288.244 132.999 287.79 130.012 287.417C126.492 286.884 123.585 286.27 121.292 285.577C118.999 284.884 116.999 283.657 115.292 281.897C113.639 280.137 112.812 277.63 112.812 274.377C112.812 271.657 113.585 269.257 115.132 267.177C116.732 265.044 119.025 263.39 122.012 262.217C125.052 261.044 128.625 260.457 132.732 260.457C135.772 260.457 138.785 260.804 141.772 261.497C144.812 262.137 147.319 263.044 149.292 264.217L145.132 273.097C141.345 270.964 137.212 269.897 132.732 269.897C130.065 269.897 128.065 270.27 126.732 271.017C125.399 271.764 124.732 272.724 124.732 273.897C124.732 275.23 125.452 276.164 126.892 276.697C128.332 277.23 130.625 277.737 133.772 278.217C137.292 278.804 140.172 279.444 142.412 280.137C144.652 280.777 146.599 281.977 148.252 283.737C149.905 285.497 150.732 287.95 150.732 291.097C150.732 293.764 149.932 296.137 148.332 298.217C146.732 300.297 144.385 301.924 141.292 303.097C138.252 304.217 134.625 304.777 130.412 304.777ZM186.192 302.057C184.965 302.964 183.445 303.657 181.632 304.137C179.872 304.564 178.005 304.777 176.032 304.777C170.912 304.777 166.939 303.47 164.112 300.857C161.339 298.244 159.952 294.404 159.952 289.337V271.657H153.312V262.057H159.952V251.577H172.432V262.057H183.152V271.657H172.432V289.177C172.432 290.99 172.885 292.404 173.792 293.417C174.752 294.377 176.085 294.857 177.792 294.857C179.765 294.857 181.445 294.324 182.832 293.257L186.192 302.057ZM234.029 282.777C234.029 282.937 233.949 284.057 233.789 286.137H201.229C201.816 288.804 203.203 290.91 205.389 292.457C207.576 294.004 210.296 294.777 213.549 294.777C215.789 294.777 217.763 294.457 219.469 293.817C221.229 293.124 222.856 292.057 224.349 290.617L230.989 297.817C226.936 302.457 221.016 304.777 213.229 304.777C208.376 304.777 204.083 303.844 200.349 301.977C196.616 300.057 193.736 297.417 191.709 294.057C189.683 290.697 188.669 286.884 188.669 282.617C188.669 278.404 189.656 274.617 191.629 271.257C193.656 267.844 196.403 265.204 199.869 263.337C203.389 261.417 207.309 260.457 211.629 260.457C215.843 260.457 219.656 261.364 223.069 263.177C226.483 264.99 229.149 267.604 231.069 271.017C233.043 274.377 234.029 278.297 234.029 282.777ZM211.709 269.897C208.883 269.897 206.509 270.697 204.589 272.297C202.669 273.897 201.496 276.084 201.069 278.857H222.269C221.843 276.137 220.669 273.977 218.749 272.377C216.829 270.724 214.483 269.897 211.709 269.897ZM268.526 304.137L259.086 290.937L249.326 304.137H235.726L252.286 282.457L236.286 261.097H250.286L259.406 273.657L268.766 261.097H282.046L266.046 282.137L282.686 304.137H268.526Z" fill="#0748B4"/>
<g clip-path="url(#clip0)">
<path fill-rule="evenodd" clip-rule="evenodd" d="M149.486 165.278L224.814 93.2454L151.784 23.4104C149.517 24.5016 147.338 25.8156 145.283 27.3522L209.058 88.3378L118.892 78.6363L116.081 54.7408L109.209 61.2744L109.348 61.2903L112.25 84.9866L137.03 87.7615L145.017 151.081L85.9969 94.6429V104.567L149.486 165.278ZM144.525 88.515L211.449 95.8577L152.561 152.17L144.525 88.515Z" fill="#0748B4"/>
<path fill-rule="evenodd" clip-rule="evenodd" d="M89.781 133.331L89.803 133.363L84.7565 138.147V237.214L112.749 210.677V164.516L130.658 147.232L102.89 120.679L89.781 133.331ZM177.869 48.3108L199.457 68.9533C203.973 50.679 199.017 30.6679 184.588 16.2047L177.932 22.6284C184.883 29.8691 184.862 41.0942 177.869 48.3108Z" fill="url(#paint0_linear)"/>
<path fill-rule="evenodd" clip-rule="evenodd" d="M57 58.688V84.685V211.219L84.993 237.482V85.985L140.756 32.7359C150.975 23.0205 165.427 19.7839 178.467 23.0262L178.482 23.0115L178.509 23.0367C184.93 24.6406 191.007 27.8161 196.064 32.5633C193.242 26.8806 189.809 21.129 184.866 16.4301C161.825 -5.47667 124.467 -5.4767 101.426 16.4301L57 58.6679L57 58.688Z" fill="url(#paint1_linear)"/>
<path fill-rule="evenodd" clip-rule="evenodd" d="M74.2264 49.4309L96.4905 28.1411L97.4378 54.4136L83.0693 68.1534V88.8334L85.4843 86.5245C90.1267 82.085 98.0642 85.2292 98.0642 91.5069C98.0642 93.3757 97.2879 95.1686 95.9059 96.4898L74.2264 117.344V75.9943V49.4309Z" fill="#0748B4"/>
</g>
<defs>
<linearGradient id="paint0_linear" x1="142.914" y1="16.2047" x2="142.914" y2="237.214" gradientUnits="userSpaceOnUse">
<stop stop-color="#0748B4"/>
<stop offset="1" stop-color="#56CCF2"/>
</linearGradient>
<linearGradient id="paint1_linear" x1="126.757" y1="5.2083e-06" x2="126.757" y2="237.482" gradientUnits="userSpaceOnUse">
<stop stop-color="#56CCF2"/>
<stop offset="1" stop-color="#0748B4"/>
</linearGradient>
<clipPath id="clip0">
<rect x="57" width="168" height="237.482" fill="white"/>
</clipPath>
</defs>
</svg>
