<svg width="97" height="36" viewBox="0 0 97 36" fill="none" xmlns="http://www.w3.org/2000/svg">
<g clip-path="url(#clip0)">
<path fill-rule="evenodd" clip-rule="evenodd" d="M13.4066 25.0546L24.326 14.1351L13.7397 3.5488C13.4111 3.71421 13.0952 3.9134 12.7973 4.14633L22.0421 13.3912L8.97182 11.9205L8.56426 8.29818L7.56816 9.28861L7.58836 9.29102L8.00892 12.8831L11.6011 13.3038L12.7588 22.9024L4.20337 14.347V15.8514L13.4066 25.0546ZM12.6874 13.418L22.3887 14.5311L13.8523 23.0675L12.6874 13.418Z" fill="#0748B4"/>
<path fill-rule="evenodd" clip-rule="evenodd" d="M4.75178 20.2117L4.75496 20.2166L4.02344 20.9418V35.9594L8.08123 31.9365V24.9391L10.6773 22.3189L6.65207 18.2937L4.75178 20.2117ZM17.5209 7.32347L20.6501 10.4527C21.3048 7.68245 20.5864 4.64897 18.4948 2.45648L17.53 3.43026C18.5376 4.52788 18.5345 6.22949 17.5209 7.32347Z" fill="#0748B4"/>
<path fill-rule="evenodd" clip-rule="evenodd" d="M0 8.89653V12.8374V32.0188L4.05781 36V13.0345L12.1411 4.96245C13.6224 3.48968 15.7173 2.99904 17.6076 3.49056L17.6098 3.48833L17.6137 3.49214C18.5445 3.73527 19.4253 4.21665 20.1584 4.93628C19.7494 4.07484 19.2517 3.20295 18.5352 2.49064C15.1952 -0.83021 9.77993 -0.830215 6.43985 2.49064L3.09819e-07 8.89348L0 8.89653Z" fill="#0748B4"/>
<path d="M2.74707 17.1821V17.5367L5.63968 14.6269C5.84001 14.4266 5.95254 14.1548 5.95254 13.8715C5.95254 12.9199 4.80194 12.4433 4.12898 13.1163L4.02892 13.2163V13.4663H3.77892L3.60216 13.2895L3.77892 13.1127L5.73621 4.60767L5.4944 4.84948M2.74707 17.1821L5.46238 14.4507L5.46292 14.4501C5.61633 14.2967 5.70254 14.0886 5.70254 13.8715C5.70254 13.1426 4.82122 12.7776 4.30577 13.293L4.30575 13.2931L3.95568 13.6431L3.52892 14.0698V13.4663V10.3314V10.2278L3.60214 10.1546L5.60814 8.1486M2.74707 17.1821V11.52V7.59679M2.74707 17.1821L2.49707 17.4336V11.52V7.49324M5.60814 8.1486L5.61188 8.25717L5.86174 8.24856L5.68496 8.07178L5.60814 8.1486ZM5.60814 8.1486L5.4944 4.84948M5.4944 4.84948L5.48262 4.50771L2.49707 7.49324M5.4944 4.84948L2.74707 7.59679M2.74707 7.59679L2.67385 7.67001L2.49707 7.49324M2.74707 7.59679V7.49324H2.49707" fill="#0748B4" stroke="white" stroke-width="0.5"/>
</g>
<path d="M35.8267 19.8994V24H32.9131V11.9141H37.7358C38.66 11.9141 39.4762 12.0856 40.1846 12.4287C40.8984 12.7663 41.4491 13.2505 41.8364 13.8813C42.2293 14.5067 42.4258 15.2178 42.4258 16.0146C42.4258 17.1934 42.0024 18.1369 41.1558 18.8452C40.3146 19.548 39.158 19.8994 37.686 19.8994H35.8267ZM35.8267 17.6499H37.7358C38.3003 17.6499 38.7292 17.5088 39.0225 17.2266C39.3213 16.9443 39.4707 16.5459 39.4707 16.0312C39.4707 15.4668 39.3185 15.0158 39.0142 14.6782C38.7098 14.3407 38.2948 14.1691 37.769 14.1636H35.8267V17.6499ZM54.2212 18.2061C54.2212 19.3848 54.0026 20.4279 53.5654 21.3354C53.1283 22.243 52.5057 22.943 51.6978 23.4355C50.8953 23.9225 49.9795 24.166 48.9502 24.166C47.9209 24.166 47.0078 23.9308 46.2109 23.4604C45.4141 22.9845 44.7915 22.3066 44.3433 21.4268C43.9006 20.5469 43.6681 19.5369 43.646 18.397V17.7163C43.646 16.5321 43.8618 15.4889 44.2935 14.5869C44.7306 13.6794 45.3532 12.9793 46.1611 12.4868C46.9746 11.9943 47.8988 11.748 48.9336 11.748C49.9574 11.748 50.8704 11.9915 51.6729 12.4785C52.4753 12.9655 53.0978 13.66 53.5405 14.562C53.9888 15.4585 54.2157 16.4878 54.2212 17.6499V18.2061ZM51.2578 17.6997C51.2578 16.4989 51.0558 15.5885 50.6519 14.9688C50.2534 14.3434 49.6807 14.0308 48.9336 14.0308C47.4727 14.0308 46.7007 15.1265 46.6177 17.3179L46.6094 18.2061C46.6094 19.3903 46.8058 20.3006 47.1987 20.937C47.5916 21.5734 48.1755 21.8916 48.9502 21.8916C49.6862 21.8916 50.2534 21.5789 50.6519 20.9536C51.0503 20.3283 51.2523 19.429 51.2578 18.2559V17.6997ZM61.9575 20.7876C61.9575 20.3615 61.8053 20.0295 61.501 19.7915C61.2021 19.5535 60.6737 19.3073 59.9155 19.0527C59.1574 18.7982 58.5376 18.5519 58.0562 18.314C56.4901 17.5448 55.707 16.4878 55.707 15.1431C55.707 14.4735 55.9007 13.8841 56.2881 13.375C56.681 12.8604 57.2344 12.4619 57.9482 12.1797C58.6621 11.8919 59.4645 11.748 60.3555 11.748C61.2243 11.748 62.0018 11.903 62.688 12.2129C63.3797 12.5228 63.9165 12.9655 64.2983 13.541C64.6802 14.111 64.8711 14.764 64.8711 15.5H61.9658C61.9658 15.0075 61.8136 14.6257 61.5093 14.3545C61.2104 14.0833 60.8037 13.9478 60.2891 13.9478C59.7689 13.9478 59.3566 14.064 59.0522 14.2964C58.7534 14.5233 58.604 14.8138 58.604 15.168C58.604 15.4779 58.77 15.7601 59.1021 16.0146C59.4341 16.2637 60.0179 16.5238 60.8535 16.7949C61.6891 17.0605 62.3753 17.3483 62.9121 17.6582C64.2181 18.4108 64.8711 19.4484 64.8711 20.771C64.8711 21.828 64.4727 22.658 63.6758 23.2612C62.8789 23.8644 61.786 24.166 60.397 24.166C59.4175 24.166 58.5293 23.9917 57.7324 23.6431C56.9411 23.2889 56.3434 22.8075 55.9395 22.1987C55.541 21.5845 55.3418 20.8789 55.3418 20.082H58.2637C58.2637 20.7295 58.4297 21.2082 58.7617 21.5181C59.0993 21.8224 59.6444 21.9746 60.397 21.9746C60.8784 21.9746 61.2575 21.8722 61.5342 21.6675C61.8164 21.4572 61.9575 21.1639 61.9575 20.7876ZM75.853 14.1636H72.2256V24H69.312V14.1636H65.751V11.9141H75.853V14.1636ZM84.5854 18.8784H80.0034V21.7588H85.4155V24H77.0898V11.9141H85.4321V14.1636H80.0034V16.7119H84.5854V18.8784ZM91.1099 15.9316L93.0854 11.9141H96.4141L93.0356 17.9072L96.5054 24H93.1436L91.1099 19.9077L89.0762 24H85.7227L89.1841 17.9072L85.814 11.9141H89.1343L91.1099 15.9316Z" fill="#0748B4"/>
<defs>
<clipPath id="clip0">
<rect width="24.3529" height="36" fill="white"/>
</clipPath>
</defs>
</svg>
